<svg width="50" height="50" viewBox="0 0 50 50" fill="none" xmlns="http://www.w3.org/2000/svg">
<rect width="50" height="50" rx="25" fill="white"/>
<g clip-path="url(#clip0_221_54)">
<path d="M24.9999 46.7392C37.0061 46.7392 46.739 37.0063 46.739 25.0001C46.739 12.9939 37.0061 3.26099 24.9999 3.26099C12.9937 3.26099 3.26074 12.9939 3.26074 25.0001C3.26074 37.0063 12.9937 46.7392 24.9999 46.7392Z" fill="url(#paint0_linear_221_54)"/>
<path d="M21.0148 34.964C20.3104 34.964 20.4302 34.6981 20.1872 34.0275L18.1162 27.2117L34.0582 17.7539" fill="#CBD9E8"/>
<path d="M21.0146 34.9638C21.5581 34.9638 21.7982 34.7153 22.1016 34.4204L25.0002 31.6019L21.3846 29.4216" fill="#AFC9DE"/>
<path d="M21.3842 29.4223L30.145 35.895C31.1448 36.4466 31.8662 36.1609 32.1153 34.9669L35.6814 18.162C36.0465 16.6982 35.1235 16.0341 34.1669 16.4683L13.2267 24.5428C11.7974 25.1161 11.8059 25.9136 12.9662 26.2689L18.34 27.9462L30.7807 20.0975C31.368 19.7413 31.9072 19.9326 31.4648 20.3254" fill="white"/>
</g>
<defs>
<linearGradient id="paint0_linear_221_54" x1="24.9999" y1="3.26099" x2="24.9999" y2="46.4168" gradientUnits="userSpaceOnUse">
<stop stop-color="#2AABEE"/>
<stop offset="1" stop-color="#229ED9"/>
</linearGradient>
<clipPath id="clip0_221_54">
<rect width="43.4783" height="43.4783" fill="white" transform="translate(3.26074 3.26099)"/>
</clipPath>
</defs>
</svg>
